<mxfile host="Electron" modified="2023-04-27T09:45:36.886Z" agent="Mozilla/5.0 (Windows NT 10.0; Win64; x64) AppleWebKit/537.36 (KHTML, like Gecko) draw.io/21.1.2 Chrome/106.0.5249.199 Electron/21.4.3 Safari/537.36" etag="QaY9OsMKqP9h8s0QRTNq" version="21.1.2" type="device" pages="3">
  <diagram id="e_L1ogsjQZvxkK9XZ2pH" name="UI">
    <mxGraphModel dx="1562" dy="917" grid="1" gridSize="10" guides="1" tooltips="1" connect="1" arrows="1" fold="1" page="1" pageScale="1" pageWidth="827" pageHeight="1169" math="0" shadow="0">
      <root>
        <mxCell id="0" />
        <mxCell id="1" parent="0" />
        <mxCell id="Vu7c68HnCX-WUGbhjU9a-1" value="体数据选择(CTA,t1,dwi,ct)" style="rounded=0;whiteSpace=wrap;html=1;" parent="1" vertex="1">
          <mxGeometry x="220" y="20" width="290" height="60" as="geometry" />
        </mxCell>
        <mxCell id="Vu7c68HnCX-WUGbhjU9a-2" value="" style="whiteSpace=wrap;html=1;aspect=fixed;" parent="1" vertex="1">
          <mxGeometry x="220" y="80" width="290" height="290" as="geometry" />
        </mxCell>
        <mxCell id="Vu7c68HnCX-WUGbhjU9a-3" value="" style="verticalLabelPosition=bottom;verticalAlign=top;html=1;shape=mxgraph.basic.patternFillRect;fillStyle=diag;step=5;fillStrokeWidth=0.2;fillStrokeColor=#dddddd;" parent="1" vertex="1">
          <mxGeometry x="220" y="120" width="50" height="30" as="geometry" />
        </mxCell>
        <mxCell id="Vu7c68HnCX-WUGbhjU9a-4" value="" style="verticalLabelPosition=bottom;verticalAlign=top;html=1;shape=mxgraph.basic.patternFillRect;fillStyle=diag;step=5;fillStrokeWidth=0.2;fillStrokeColor=#dddddd;" parent="1" vertex="1">
          <mxGeometry x="270" y="120" width="50" height="30" as="geometry" />
        </mxCell>
        <mxCell id="Vu7c68HnCX-WUGbhjU9a-5" value="" style="verticalLabelPosition=bottom;verticalAlign=top;html=1;shape=mxgraph.basic.patternFillRect;fillStyle=diag;step=5;fillStrokeWidth=0.2;fillStrokeColor=#dddddd;" parent="1" vertex="1">
          <mxGeometry x="320" y="120" width="50" height="30" as="geometry" />
        </mxCell>
        <mxCell id="Vu7c68HnCX-WUGbhjU9a-6" value="" style="verticalLabelPosition=bottom;verticalAlign=top;html=1;shape=mxgraph.basic.patternFillRect;fillStyle=diag;step=5;fillStrokeWidth=0.2;fillStrokeColor=#dddddd;" parent="1" vertex="1">
          <mxGeometry x="370" y="120" width="50" height="30" as="geometry" />
        </mxCell>
        <mxCell id="Vu7c68HnCX-WUGbhjU9a-7" value="" style="verticalLabelPosition=bottom;verticalAlign=top;html=1;shape=mxgraph.basic.patternFillRect;fillStyle=diag;step=5;fillStrokeWidth=0.2;fillStrokeColor=#dddddd;" parent="1" vertex="1">
          <mxGeometry x="420" y="120" width="50" height="30" as="geometry" />
        </mxCell>
        <mxCell id="Vu7c68HnCX-WUGbhjU9a-8" value="" style="verticalLabelPosition=bottom;verticalAlign=top;html=1;shape=mxgraph.basic.patternFillRect;fillStyle=diag;step=5;fillStrokeWidth=0.2;fillStrokeColor=#dddddd;" parent="1" vertex="1">
          <mxGeometry x="240" y="80" width="50" height="30" as="geometry" />
        </mxCell>
        <mxCell id="Vu7c68HnCX-WUGbhjU9a-10" value="" style="verticalLabelPosition=bottom;verticalAlign=top;html=1;shape=mxgraph.basic.rect;fillColor2=none;strokeWidth=1;size=20;indent=5;" parent="1" vertex="1">
          <mxGeometry x="350" y="270" width="120" height="60" as="geometry" />
        </mxCell>
        <mxCell id="Vu7c68HnCX-WUGbhjU9a-11" value="" style="verticalLabelPosition=bottom;verticalAlign=top;html=1;shape=mxgraph.basic.patternFillRect;fillStyle=diag;step=5;fillStrokeWidth=0.2;fillStrokeColor=#dddddd;" parent="1" vertex="1">
          <mxGeometry x="430" y="80" width="50" height="30" as="geometry" />
        </mxCell>
      </root>
    </mxGraphModel>
  </diagram>
  <diagram id="VFGUICuaOImmgyup6JHA" name="BrushPipeline2D">
    <mxGraphModel dx="1790" dy="949" grid="1" gridSize="10" guides="1" tooltips="1" connect="1" arrows="1" fold="1" page="1" pageScale="1" pageWidth="827" pageHeight="1169" math="0" shadow="0">
      <root>
        <mxCell id="psuobKthaOf-5Xqrck-I-0" />
        <mxCell id="psuobKthaOf-5Xqrck-I-1" parent="psuobKthaOf-5Xqrck-I-0" />
        <mxCell id="psuobKthaOf-5Xqrck-I-5" style="edgeStyle=orthogonalEdgeStyle;rounded=0;orthogonalLoop=1;jettySize=auto;html=1;entryX=0.502;entryY=0.07;entryDx=0;entryDy=0;entryPerimeter=0;" parent="psuobKthaOf-5Xqrck-I-1" source="psuobKthaOf-5Xqrck-I-3" target="psuobKthaOf-5Xqrck-I-4" edge="1">
          <mxGeometry relative="1" as="geometry" />
        </mxCell>
        <mxCell id="psuobKthaOf-5Xqrck-I-3" value="&lt;div style=&quot;color: rgb(212 , 212 , 212) ; background-color: rgb(30 , 30 , 30) ; font-family: &amp;#34;consolas&amp;#34; , &amp;#34;courier new&amp;#34; , monospace ; font-size: 14px ; line-height: 19px&quot;&gt;&lt;span style=&quot;color: #9cdcfe&quot;&gt;BrushCutter&lt;/span&gt;&lt;/div&gt;" style="text;html=1;align=center;verticalAlign=middle;resizable=0;points=[];autosize=1;strokeColor=none;fillColor=none;" parent="psuobKthaOf-5Xqrck-I-1" vertex="1">
          <mxGeometry x="155" y="240" width="100" height="20" as="geometry" />
        </mxCell>
        <mxCell id="psuobKthaOf-5Xqrck-I-7" style="edgeStyle=orthogonalEdgeStyle;rounded=0;orthogonalLoop=1;jettySize=auto;html=1;" parent="psuobKthaOf-5Xqrck-I-1" source="psuobKthaOf-5Xqrck-I-4" target="psuobKthaOf-5Xqrck-I-6" edge="1">
          <mxGeometry relative="1" as="geometry" />
        </mxCell>
        <mxCell id="psuobKthaOf-5Xqrck-I-4" value="&lt;div style=&quot;color: rgb(212 , 212 , 212) ; background-color: rgb(30 , 30 , 30) ; font-family: &amp;#34;consolas&amp;#34; , &amp;#34;courier new&amp;#34; , monospace ; font-size: 14px ; line-height: 19px&quot;&gt;&lt;span style=&quot;color: #9cdcfe&quot;&gt;BrushWorldToSliceTransformer&lt;/span&gt;&lt;/div&gt;" style="text;html=1;align=center;verticalAlign=middle;resizable=0;points=[];autosize=1;strokeColor=none;fillColor=none;" parent="psuobKthaOf-5Xqrck-I-1" vertex="1">
          <mxGeometry x="90" y="290" width="230" height="20" as="geometry" />
        </mxCell>
        <mxCell id="psuobKthaOf-5Xqrck-I-9" style="edgeStyle=orthogonalEdgeStyle;rounded=0;orthogonalLoop=1;jettySize=auto;html=1;" parent="psuobKthaOf-5Xqrck-I-1" source="psuobKthaOf-5Xqrck-I-6" target="psuobKthaOf-5Xqrck-I-8" edge="1">
          <mxGeometry relative="1" as="geometry" />
        </mxCell>
        <mxCell id="psuobKthaOf-5Xqrck-I-6" value="&lt;div style=&quot;color: rgb(212 , 212 , 212) ; background-color: rgb(30 , 30 , 30) ; font-family: &amp;#34;consolas&amp;#34; , &amp;#34;courier new&amp;#34; , monospace ; font-size: 14px ; line-height: 19px&quot;&gt;&lt;span style=&quot;color: #9cdcfe&quot;&gt;BrushMapper&lt;/span&gt;&lt;/div&gt;" style="text;html=1;align=center;verticalAlign=middle;resizable=0;points=[];autosize=1;strokeColor=none;fillColor=none;" parent="psuobKthaOf-5Xqrck-I-1" vertex="1">
          <mxGeometry x="155" y="340" width="100" height="20" as="geometry" />
        </mxCell>
        <mxCell id="psuobKthaOf-5Xqrck-I-8" value="&lt;div style=&quot;color: rgb(212 , 212 , 212) ; background-color: rgb(30 , 30 , 30) ; font-family: &amp;#34;consolas&amp;#34; , &amp;#34;courier new&amp;#34; , monospace ; font-size: 14px ; line-height: 19px&quot;&gt;&lt;span style=&quot;color: #9cdcfe&quot;&gt;BrushActor&lt;/span&gt;&lt;/div&gt;" style="text;html=1;align=center;verticalAlign=middle;resizable=0;points=[];autosize=1;strokeColor=none;fillColor=none;" parent="psuobKthaOf-5Xqrck-I-1" vertex="1">
          <mxGeometry x="160" y="410" width="90" height="20" as="geometry" />
        </mxCell>
        <mxCell id="tICdj2XlaOcaoDhUOAZV-12" style="edgeStyle=orthogonalEdgeStyle;rounded=0;orthogonalLoop=1;jettySize=auto;html=1;entryX=0.502;entryY=0.03;entryDx=0;entryDy=0;entryPerimeter=0;" parent="psuobKthaOf-5Xqrck-I-1" source="psuobKthaOf-5Xqrck-I-10" target="tICdj2XlaOcaoDhUOAZV-3" edge="1">
          <mxGeometry relative="1" as="geometry" />
        </mxCell>
        <mxCell id="psuobKthaOf-5Xqrck-I-10" value="&lt;div style=&quot;color: rgb(212 , 212 , 212) ; background-color: rgb(30 , 30 , 30) ; font-family: &amp;#34;consolas&amp;#34; , &amp;#34;courier new&amp;#34; , monospace ; font-size: 14px ; line-height: 19px&quot;&gt;&lt;span style=&quot;color: #9cdcfe&quot;&gt;FeedbackCutter&lt;/span&gt;&lt;/div&gt;" style="text;html=1;align=center;verticalAlign=middle;resizable=0;points=[];autosize=1;strokeColor=none;fillColor=none;" parent="psuobKthaOf-5Xqrck-I-1" vertex="1">
          <mxGeometry x="580" y="190" width="120" height="20" as="geometry" />
        </mxCell>
        <mxCell id="psuobKthaOf-5Xqrck-I-13" value="&lt;div style=&quot;color: rgb(212 , 212 , 212) ; background-color: rgb(30 , 30 , 30) ; font-family: &amp;#34;consolas&amp;#34; , &amp;#34;courier new&amp;#34; , monospace ; font-size: 14px ; line-height: 19px&quot;&gt;&lt;span style=&quot;color: #4ec9b0&quot;&gt;BrushPipeline2D&lt;/span&gt;&lt;/div&gt;" style="text;html=1;align=center;verticalAlign=middle;resizable=0;points=[];autosize=1;strokeColor=none;fillColor=none;" parent="psuobKthaOf-5Xqrck-I-1" vertex="1">
          <mxGeometry y="10" width="130" height="20" as="geometry" />
        </mxCell>
        <mxCell id="AyxOQOM_vsJ7FQnCIUeu-1" style="edgeStyle=orthogonalEdgeStyle;rounded=0;orthogonalLoop=1;jettySize=auto;html=1;" parent="psuobKthaOf-5Xqrck-I-1" source="AyxOQOM_vsJ7FQnCIUeu-0" target="psuobKthaOf-5Xqrck-I-3" edge="1">
          <mxGeometry relative="1" as="geometry" />
        </mxCell>
        <mxCell id="AyxOQOM_vsJ7FQnCIUeu-0" value="&lt;div style=&quot;color: rgb(212 , 212 , 212) ; background-color: rgb(30 , 30 , 30) ; font-family: &amp;#34;consolas&amp;#34; , &amp;#34;courier new&amp;#34; , monospace ; font-size: 14px ; line-height: 19px&quot;&gt;&lt;span style=&quot;color: #9cdcfe&quot;&gt;WorldOriginToWorldTransformer&lt;/span&gt;&lt;/div&gt;" style="text;html=1;align=center;verticalAlign=middle;resizable=0;points=[];autosize=1;strokeColor=none;fillColor=none;" parent="psuobKthaOf-5Xqrck-I-1" vertex="1">
          <mxGeometry x="85" y="190" width="240" height="20" as="geometry" />
        </mxCell>
        <mxCell id="tICdj2XlaOcaoDhUOAZV-11" style="edgeStyle=orthogonalEdgeStyle;rounded=0;orthogonalLoop=1;jettySize=auto;html=1;entryX=0.508;entryY=-0.11;entryDx=0;entryDy=0;entryPerimeter=0;" parent="psuobKthaOf-5Xqrck-I-1" source="AyxOQOM_vsJ7FQnCIUeu-2" target="psuobKthaOf-5Xqrck-I-10" edge="1">
          <mxGeometry relative="1" as="geometry" />
        </mxCell>
        <mxCell id="AyxOQOM_vsJ7FQnCIUeu-2" value="&lt;div style=&quot;color: rgb(212 , 212 , 212) ; background-color: rgb(30 , 30 , 30) ; font-family: &amp;#34;consolas&amp;#34; , &amp;#34;courier new&amp;#34; , monospace ; font-size: 14px ; line-height: 19px&quot;&gt;&lt;span style=&quot;color: #9cdcfe&quot;&gt;FeedbackGlyphFilter&lt;/span&gt;&lt;/div&gt;" style="text;html=1;align=center;verticalAlign=middle;resizable=0;points=[];autosize=1;strokeColor=none;fillColor=none;" parent="psuobKthaOf-5Xqrck-I-1" vertex="1">
          <mxGeometry x="560" y="140" width="160" height="20" as="geometry" />
        </mxCell>
        <mxCell id="l1jzEaZ_J__yePV6dTUz-8" value="" style="edgeStyle=orthogonalEdgeStyle;rounded=0;orthogonalLoop=1;jettySize=auto;html=1;" parent="psuobKthaOf-5Xqrck-I-1" source="AyxOQOM_vsJ7FQnCIUeu-3" target="l1jzEaZ_J__yePV6dTUz-6" edge="1">
          <mxGeometry relative="1" as="geometry" />
        </mxCell>
        <mxCell id="AyxOQOM_vsJ7FQnCIUeu-3" value="&lt;div style=&quot;color: rgb(212 , 212 , 212) ; background-color: rgb(30 , 30 , 30) ; font-family: &amp;#34;consolas&amp;#34; , &amp;#34;courier new&amp;#34; , monospace ; font-size: 14px ; line-height: 19px&quot;&gt;&lt;span style=&quot;color: #9cdcfe&quot;&gt;BrushCylinderSource&lt;/span&gt;&lt;/div&gt;" style="text;html=1;align=center;verticalAlign=middle;resizable=0;points=[];autosize=1;strokeColor=none;fillColor=none;" parent="psuobKthaOf-5Xqrck-I-1" vertex="1">
          <mxGeometry x="125" y="40" width="160" height="20" as="geometry" />
        </mxCell>
        <mxCell id="l1jzEaZ_J__yePV6dTUz-20" value="" style="edgeStyle=orthogonalEdgeStyle;rounded=0;orthogonalLoop=1;jettySize=auto;html=1;" parent="psuobKthaOf-5Xqrck-I-1" source="l1jzEaZ_J__yePV6dTUz-0" target="l1jzEaZ_J__yePV6dTUz-19" edge="1">
          <mxGeometry relative="1" as="geometry" />
        </mxCell>
        <mxCell id="l1jzEaZ_J__yePV6dTUz-0" value="&lt;div style=&quot;color: rgb(212 , 212 , 212) ; background-color: rgb(30 , 30 , 30) ; font-family: &amp;#34;consolas&amp;#34; , &amp;#34;courier new&amp;#34; , monospace ; font-size: 14px ; line-height: 19px&quot;&gt;&lt;span style=&quot;color: #9cdcfe&quot;&gt;BrushPolyDataToStencil&lt;/span&gt;&lt;/div&gt;" style="text;html=1;align=center;verticalAlign=middle;resizable=0;points=[];autosize=1;strokeColor=none;fillColor=none;" parent="psuobKthaOf-5Xqrck-I-1" vertex="1">
          <mxGeometry x="305" y="600" width="180" height="20" as="geometry" />
        </mxCell>
        <mxCell id="l1jzEaZ_J__yePV6dTUz-18" value="" style="edgeStyle=orthogonalEdgeStyle;rounded=0;orthogonalLoop=1;jettySize=auto;html=1;" parent="psuobKthaOf-5Xqrck-I-1" source="l1jzEaZ_J__yePV6dTUz-1" target="l1jzEaZ_J__yePV6dTUz-0" edge="1">
          <mxGeometry relative="1" as="geometry" />
        </mxCell>
        <mxCell id="l1jzEaZ_J__yePV6dTUz-1" value="&lt;div style=&quot;color: rgb(212 , 212 , 212) ; background-color: rgb(30 , 30 , 30) ; font-family: &amp;#34;consolas&amp;#34; , &amp;#34;courier new&amp;#34; , monospace ; font-size: 14px ; line-height: 19px&quot;&gt;&lt;span style=&quot;color: #9cdcfe&quot;&gt;WorldOriginToModifierLabelmapIjkTransformer&lt;/span&gt;&lt;/div&gt;" style="text;html=1;align=center;verticalAlign=middle;resizable=0;points=[];autosize=1;strokeColor=none;fillColor=none;" parent="psuobKthaOf-5Xqrck-I-1" vertex="1">
          <mxGeometry x="220" y="520" width="350" height="20" as="geometry" />
        </mxCell>
        <mxCell id="l1jzEaZ_J__yePV6dTUz-10" value="" style="edgeStyle=orthogonalEdgeStyle;rounded=0;orthogonalLoop=1;jettySize=auto;html=1;" parent="psuobKthaOf-5Xqrck-I-1" source="l1jzEaZ_J__yePV6dTUz-5" target="AyxOQOM_vsJ7FQnCIUeu-0" edge="1">
          <mxGeometry relative="1" as="geometry" />
        </mxCell>
        <mxCell id="l1jzEaZ_J__yePV6dTUz-11" value="" style="edgeStyle=orthogonalEdgeStyle;rounded=0;orthogonalLoop=1;jettySize=auto;html=1;startArrow=none;" parent="psuobKthaOf-5Xqrck-I-1" source="l1jzEaZ_J__yePV6dTUz-5" target="AyxOQOM_vsJ7FQnCIUeu-0" edge="1">
          <mxGeometry relative="1" as="geometry" />
        </mxCell>
        <mxCell id="l1jzEaZ_J__yePV6dTUz-13" style="edgeStyle=orthogonalEdgeStyle;rounded=0;orthogonalLoop=1;jettySize=auto;html=1;entryX=0.498;entryY=-0.07;entryDx=0;entryDy=0;entryPerimeter=0;" parent="psuobKthaOf-5Xqrck-I-1" source="l1jzEaZ_J__yePV6dTUz-6" target="l1jzEaZ_J__yePV6dTUz-5" edge="1">
          <mxGeometry relative="1" as="geometry" />
        </mxCell>
        <mxCell id="l1jzEaZ_J__yePV6dTUz-6" value="&lt;div style=&quot;color: rgb(212 , 212 , 212) ; background-color: rgb(30 , 30 , 30) ; font-family: &amp;#34;consolas&amp;#34; , &amp;#34;courier new&amp;#34; , monospace ; font-size: 14px ; line-height: 19px&quot;&gt;&lt;span style=&quot;color: #9cdcfe&quot;&gt;BrushToWorldOriginTransformer&lt;/span&gt;&lt;/div&gt;" style="text;html=1;align=center;verticalAlign=middle;resizable=0;points=[];autosize=1;strokeColor=none;fillColor=none;" parent="psuobKthaOf-5Xqrck-I-1" vertex="1">
          <mxGeometry x="85" y="100" width="240" height="20" as="geometry" />
        </mxCell>
        <mxCell id="l1jzEaZ_J__yePV6dTUz-17" style="edgeStyle=orthogonalEdgeStyle;rounded=0;orthogonalLoop=1;jettySize=auto;html=1;entryX=0.487;entryY=-0.21;entryDx=0;entryDy=0;entryPerimeter=0;" parent="psuobKthaOf-5Xqrck-I-1" source="l1jzEaZ_J__yePV6dTUz-5" target="l1jzEaZ_J__yePV6dTUz-1" edge="1">
          <mxGeometry relative="1" as="geometry">
            <mxPoint x="390" y="460" as="targetPoint" />
            <Array as="points">
              <mxPoint x="391" y="160" />
            </Array>
          </mxGeometry>
        </mxCell>
        <mxCell id="l1jzEaZ_J__yePV6dTUz-5" value="&lt;div style=&quot;color: rgb(212 , 212 , 212) ; background-color: rgb(30 , 30 , 30) ; font-family: &amp;#34;consolas&amp;#34; , &amp;#34;courier new&amp;#34; , monospace ; font-size: 14px ; line-height: 19px&quot;&gt;&lt;span style=&quot;color: #9cdcfe&quot;&gt;BrushPolyDataNormals&lt;/span&gt;&lt;/div&gt;" style="text;html=1;align=center;verticalAlign=middle;resizable=0;points=[];autosize=1;strokeColor=none;fillColor=none;" parent="psuobKthaOf-5Xqrck-I-1" vertex="1">
          <mxGeometry x="120" y="150" width="170" height="20" as="geometry" />
        </mxCell>
        <mxCell id="l1jzEaZ_J__yePV6dTUz-19" value="&lt;div style=&quot;color: rgb(212 , 212 , 212) ; background-color: rgb(30 , 30 , 30) ; font-family: &amp;#34;consolas&amp;#34; , &amp;#34;courier new&amp;#34; , monospace ; font-size: 14px ; line-height: 19px&quot;&gt;&lt;span style=&quot;color: #9cdcfe&quot;&gt;stencilToImage&lt;/span&gt;&lt;/div&gt;" style="text;html=1;align=center;verticalAlign=middle;resizable=0;points=[];autosize=1;strokeColor=none;fillColor=none;" parent="psuobKthaOf-5Xqrck-I-1" vertex="1">
          <mxGeometry x="335" y="670" width="120" height="20" as="geometry" />
        </mxCell>
        <mxCell id="l1jzEaZ_J__yePV6dTUz-21" value="&lt;div style=&quot;color: rgb(212 , 212 , 212) ; background-color: rgb(30 , 30 , 30) ; font-family: &amp;#34;consolas&amp;#34; , &amp;#34;courier new&amp;#34; , monospace ; font-size: 14px ; line-height: 19px&quot;&gt;&lt;span style=&quot;color: #9cdcfe&quot;&gt;brushPositioner&lt;/span&gt;&lt;/div&gt;" style="text;html=1;align=center;verticalAlign=middle;resizable=0;points=[];autosize=1;strokeColor=none;fillColor=none;" parent="psuobKthaOf-5Xqrck-I-1" vertex="1">
          <mxGeometry x="325" y="740" width="130" height="20" as="geometry" />
        </mxCell>
        <mxCell id="tICdj2XlaOcaoDhUOAZV-2" value="&lt;div style=&quot;color: rgb(212 , 212 , 212) ; background-color: rgb(30 , 30 , 30) ; font-family: &amp;#34;consolas&amp;#34; , &amp;#34;courier new&amp;#34; , monospace ; font-size: 14px ; line-height: 19px&quot;&gt;&lt;span style=&quot;color: #9cdcfe&quot;&gt;FeedbackMapper&lt;/span&gt;&lt;/div&gt;" style="text;html=1;align=center;verticalAlign=middle;resizable=0;points=[];autosize=1;strokeColor=none;fillColor=none;" parent="psuobKthaOf-5Xqrck-I-1" vertex="1">
          <mxGeometry x="580" y="310" width="120" height="20" as="geometry" />
        </mxCell>
        <mxCell id="tICdj2XlaOcaoDhUOAZV-13" style="edgeStyle=orthogonalEdgeStyle;rounded=0;orthogonalLoop=1;jettySize=auto;html=1;" parent="psuobKthaOf-5Xqrck-I-1" source="tICdj2XlaOcaoDhUOAZV-3" target="tICdj2XlaOcaoDhUOAZV-2" edge="1">
          <mxGeometry relative="1" as="geometry" />
        </mxCell>
        <mxCell id="tICdj2XlaOcaoDhUOAZV-3" value="&lt;div style=&quot;color: rgb(212 , 212 , 212) ; background-color: rgb(30 , 30 , 30) ; font-family: &amp;#34;consolas&amp;#34; , &amp;#34;courier new&amp;#34; , monospace ; font-size: 14px ; line-height: 19px&quot;&gt;&lt;span style=&quot;color: #9cdcfe&quot;&gt;FeedbackWorldToSliceTransformer&lt;/span&gt;&lt;/div&gt;" style="text;html=1;align=center;verticalAlign=middle;resizable=0;points=[];autosize=1;strokeColor=none;fillColor=none;" parent="psuobKthaOf-5Xqrck-I-1" vertex="1">
          <mxGeometry x="515" y="240" width="250" height="20" as="geometry" />
        </mxCell>
        <mxCell id="tICdj2XlaOcaoDhUOAZV-6" value="&lt;div style=&quot;color: rgb(212 , 212 , 212) ; background-color: rgb(30 , 30 , 30) ; font-family: &amp;#34;consolas&amp;#34; , &amp;#34;courier new&amp;#34; , monospace ; font-size: 14px ; line-height: 19px&quot;&gt;&lt;span style=&quot;color: #9cdcfe&quot;&gt;FeedbackPointsPolyData&lt;/span&gt;&lt;/div&gt;" style="text;html=1;align=center;verticalAlign=middle;resizable=0;points=[];autosize=1;strokeColor=none;fillColor=none;" parent="psuobKthaOf-5Xqrck-I-1" vertex="1">
          <mxGeometry x="455" y="90" width="180" height="20" as="geometry" />
        </mxCell>
        <mxCell id="tICdj2XlaOcaoDhUOAZV-9" style="edgeStyle=orthogonalEdgeStyle;rounded=0;orthogonalLoop=1;jettySize=auto;html=1;entryX=0.75;entryY=0;entryDx=0;entryDy=0;entryPerimeter=0;" parent="psuobKthaOf-5Xqrck-I-1" source="tICdj2XlaOcaoDhUOAZV-7" target="tICdj2XlaOcaoDhUOAZV-6" edge="1">
          <mxGeometry relative="1" as="geometry" />
        </mxCell>
        <mxCell id="tICdj2XlaOcaoDhUOAZV-7" value="&lt;div style=&quot;color: rgb(212 , 212 , 212) ; background-color: rgb(30 , 30 , 30) ; font-family: &amp;#34;consolas&amp;#34; , &amp;#34;courier new&amp;#34; , monospace ; font-size: 14px ; line-height: 19px&quot;&gt;&lt;span style=&quot;color: #9cdcfe&quot;&gt;PaintCoordinates_World&lt;/span&gt;&lt;/div&gt;" style="text;html=1;align=center;verticalAlign=middle;resizable=0;points=[];autosize=1;strokeColor=none;fillColor=none;" parent="psuobKthaOf-5Xqrck-I-1" vertex="1">
          <mxGeometry x="540" y="30" width="180" height="20" as="geometry" />
        </mxCell>
        <mxCell id="tICdj2XlaOcaoDhUOAZV-10" style="edgeStyle=orthogonalEdgeStyle;rounded=0;orthogonalLoop=1;jettySize=auto;html=1;entryX=0.724;entryY=0.01;entryDx=0;entryDy=0;entryPerimeter=0;" parent="psuobKthaOf-5Xqrck-I-1" source="tICdj2XlaOcaoDhUOAZV-8" target="AyxOQOM_vsJ7FQnCIUeu-2" edge="1">
          <mxGeometry relative="1" as="geometry" />
        </mxCell>
        <mxCell id="tICdj2XlaOcaoDhUOAZV-8" value="&lt;div style=&quot;color: rgb(212 , 212 , 212) ; background-color: rgb(30 , 30 , 30) ; font-family: &amp;#34;consolas&amp;#34; , &amp;#34;courier new&amp;#34; , monospace ; font-size: 14px ; line-height: 19px&quot;&gt;&lt;span style=&quot;color: #9cdcfe&quot;&gt;BrushPolyDataNormals&lt;/span&gt;&lt;/div&gt;" style="text;html=1;align=center;verticalAlign=middle;resizable=0;points=[];autosize=1;strokeColor=none;fillColor=none;" parent="psuobKthaOf-5Xqrck-I-1" vertex="1">
          <mxGeometry x="635" y="90" width="170" height="20" as="geometry" />
        </mxCell>
        <mxCell id="KV5IEpgUSitfx0sMjWn6-0" value="" style="shape=cylinder3;whiteSpace=wrap;html=1;boundedLbl=1;backgroundOutline=1;size=15;fillColor=#dae8fc;strokeColor=#6c8ebf;" vertex="1" parent="psuobKthaOf-5Xqrck-I-1">
          <mxGeometry x="384" y="810" width="60" height="80" as="geometry" />
        </mxCell>
        <mxCell id="KV5IEpgUSitfx0sMjWn6-9" value="" style="endArrow=classic;html=1;rounded=0;" edge="1" parent="psuobKthaOf-5Xqrck-I-1" target="KV5IEpgUSitfx0sMjWn6-16">
          <mxGeometry width="50" height="50" relative="1" as="geometry">
            <mxPoint x="470" y="855" as="sourcePoint" />
            <mxPoint x="515" y="805" as="targetPoint" />
          </mxGeometry>
        </mxCell>
        <mxCell id="KV5IEpgUSitfx0sMjWn6-13" value="" style="endArrow=classic;html=1;rounded=0;" edge="1" parent="psuobKthaOf-5Xqrck-I-1">
          <mxGeometry width="50" height="50" relative="1" as="geometry">
            <mxPoint x="470" y="855" as="sourcePoint" />
            <mxPoint x="540" y="855" as="targetPoint" />
          </mxGeometry>
        </mxCell>
        <mxCell id="KV5IEpgUSitfx0sMjWn6-14" value="" style="endArrow=classic;html=1;rounded=0;" edge="1" parent="psuobKthaOf-5Xqrck-I-1">
          <mxGeometry width="50" height="50" relative="1" as="geometry">
            <mxPoint x="470" y="855" as="sourcePoint" />
            <mxPoint x="470" y="810" as="targetPoint" />
          </mxGeometry>
        </mxCell>
        <mxCell id="KV5IEpgUSitfx0sMjWn6-15" value="x" style="text;html=1;align=center;verticalAlign=middle;resizable=0;points=[];autosize=1;strokeColor=none;fillColor=none;" vertex="1" parent="psuobKthaOf-5Xqrck-I-1">
          <mxGeometry x="540" y="835" width="30" height="30" as="geometry" />
        </mxCell>
        <mxCell id="KV5IEpgUSitfx0sMjWn6-16" value="z" style="text;html=1;align=center;verticalAlign=middle;resizable=0;points=[];autosize=1;strokeColor=none;fillColor=none;" vertex="1" parent="psuobKthaOf-5Xqrck-I-1">
          <mxGeometry x="425" y="890" width="30" height="30" as="geometry" />
        </mxCell>
        <mxCell id="KV5IEpgUSitfx0sMjWn6-17" value="y" style="text;html=1;align=center;verticalAlign=middle;resizable=0;points=[];autosize=1;strokeColor=none;fillColor=none;" vertex="1" parent="psuobKthaOf-5Xqrck-I-1">
          <mxGeometry x="465" y="780" width="30" height="30" as="geometry" />
        </mxCell>
      </root>
    </mxGraphModel>
  </diagram>
  <diagram id="IpvbbqyVunPin4aqjZfV" name="BrushPipeline3D">
    <mxGraphModel dx="2058" dy="1091" grid="1" gridSize="10" guides="1" tooltips="1" connect="1" arrows="1" fold="1" page="1" pageScale="1" pageWidth="827" pageHeight="1169" math="0" shadow="0">
      <root>
        <mxCell id="_3An6TJH8r7nM07LRVhA-0" />
        <mxCell id="_3An6TJH8r7nM07LRVhA-1" parent="_3An6TJH8r7nM07LRVhA-0" />
        <mxCell id="JfRTu8oGKVbJKTYKJ5x--5" style="edgeStyle=orthogonalEdgeStyle;rounded=0;orthogonalLoop=1;jettySize=auto;html=1;" parent="_3An6TJH8r7nM07LRVhA-1" source="JfRTu8oGKVbJKTYKJ5x--0" target="JfRTu8oGKVbJKTYKJ5x--1" edge="1">
          <mxGeometry relative="1" as="geometry" />
        </mxCell>
        <mxCell id="JfRTu8oGKVbJKTYKJ5x--0" value="&lt;div style=&quot;color: rgb(212 , 212 , 212) ; background-color: rgb(30 , 30 , 30) ; font-family: &amp;#34;consolas&amp;#34; , &amp;#34;courier new&amp;#34; , monospace ; font-size: 14px ; line-height: 19px&quot;&gt;&lt;span style=&quot;color: #9cdcfe&quot;&gt;BrushMapper&lt;/span&gt;&lt;/div&gt;" style="text;html=1;align=center;verticalAlign=middle;resizable=0;points=[];autosize=1;strokeColor=none;fillColor=none;" parent="_3An6TJH8r7nM07LRVhA-1" vertex="1">
          <mxGeometry x="90" y="170" width="100" height="20" as="geometry" />
        </mxCell>
        <mxCell id="JfRTu8oGKVbJKTYKJ5x--1" value="&lt;div style=&quot;color: rgb(212 , 212 , 212) ; background-color: rgb(30 , 30 , 30) ; font-family: &amp;#34;consolas&amp;#34; , &amp;#34;courier new&amp;#34; , monospace ; font-size: 14px ; line-height: 19px&quot;&gt;&lt;span style=&quot;color: #9cdcfe&quot;&gt;BrushActor&lt;/span&gt;&lt;/div&gt;" style="text;html=1;align=center;verticalAlign=middle;resizable=0;points=[];autosize=1;strokeColor=none;fillColor=none;" parent="_3An6TJH8r7nM07LRVhA-1" vertex="1">
          <mxGeometry x="95" y="220" width="90" height="20" as="geometry" />
        </mxCell>
        <mxCell id="JfRTu8oGKVbJKTYKJ5x--6" style="edgeStyle=orthogonalEdgeStyle;rounded=0;orthogonalLoop=1;jettySize=auto;html=1;" parent="_3An6TJH8r7nM07LRVhA-1" source="JfRTu8oGKVbJKTYKJ5x--2" target="JfRTu8oGKVbJKTYKJ5x--4" edge="1">
          <mxGeometry relative="1" as="geometry" />
        </mxCell>
        <mxCell id="JfRTu8oGKVbJKTYKJ5x--2" value="&lt;div style=&quot;color: rgb(212 , 212 , 212) ; background-color: rgb(30 , 30 , 30) ; font-family: &amp;#34;consolas&amp;#34; , &amp;#34;courier new&amp;#34; , monospace ; font-size: 14px ; line-height: 19px&quot;&gt;&lt;span style=&quot;color: #9cdcfe&quot;&gt;FeedbackMapper&lt;/span&gt;&lt;/div&gt;" style="text;html=1;align=center;verticalAlign=middle;resizable=0;points=[];autosize=1;strokeColor=none;fillColor=none;" parent="_3An6TJH8r7nM07LRVhA-1" vertex="1">
          <mxGeometry x="440" y="200" width="120" height="20" as="geometry" />
        </mxCell>
        <mxCell id="JfRTu8oGKVbJKTYKJ5x--4" value="&lt;div style=&quot;color: rgb(212 , 212 , 212) ; background-color: rgb(30 , 30 , 30) ; font-family: &amp;#34;consolas&amp;#34; , &amp;#34;courier new&amp;#34; , monospace ; font-size: 14px ; line-height: 19px&quot;&gt;&lt;span style=&quot;color: #9cdcfe&quot;&gt;FeedbackActor&lt;/span&gt;&lt;/div&gt;" style="text;html=1;align=center;verticalAlign=middle;resizable=0;points=[];autosize=1;strokeColor=none;fillColor=none;" parent="_3An6TJH8r7nM07LRVhA-1" vertex="1">
          <mxGeometry x="440" y="280" width="120" height="20" as="geometry" />
        </mxCell>
        <mxCell id="LdqpkPto_PsRLhw6O5bw-5" style="edgeStyle=orthogonalEdgeStyle;rounded=0;orthogonalLoop=1;jettySize=auto;html=1;entryX=0.496;entryY=0.01;entryDx=0;entryDy=0;entryPerimeter=0;" parent="_3An6TJH8r7nM07LRVhA-1" source="LdqpkPto_PsRLhw6O5bw-0" target="JfRTu8oGKVbJKTYKJ5x--0" edge="1">
          <mxGeometry relative="1" as="geometry" />
        </mxCell>
        <mxCell id="LdqpkPto_PsRLhw6O5bw-0" value="&lt;div style=&quot;color: rgb(212 , 212 , 212) ; background-color: rgb(30 , 30 , 30) ; font-family: &amp;#34;consolas&amp;#34; , &amp;#34;courier new&amp;#34; , monospace ; font-size: 14px ; line-height: 19px&quot;&gt;&lt;span style=&quot;color: #9cdcfe&quot;&gt;WorldOriginToWorldTransformer&lt;/span&gt;&lt;/div&gt;" style="text;html=1;align=center;verticalAlign=middle;resizable=0;points=[];autosize=1;strokeColor=none;fillColor=none;" parent="_3An6TJH8r7nM07LRVhA-1" vertex="1">
          <mxGeometry x="20" y="120" width="240" height="20" as="geometry" />
        </mxCell>
        <mxCell id="LdqpkPto_PsRLhw6O5bw-3" style="edgeStyle=orthogonalEdgeStyle;rounded=0;orthogonalLoop=1;jettySize=auto;html=1;entryX=0.505;entryY=0.07;entryDx=0;entryDy=0;entryPerimeter=0;" parent="_3An6TJH8r7nM07LRVhA-1" source="LdqpkPto_PsRLhw6O5bw-2" target="JfRTu8oGKVbJKTYKJ5x--2" edge="1">
          <mxGeometry relative="1" as="geometry" />
        </mxCell>
        <mxCell id="LdqpkPto_PsRLhw6O5bw-2" value="&lt;div style=&quot;color: rgb(212 , 212 , 212) ; background-color: rgb(30 , 30 , 30) ; font-family: &amp;#34;consolas&amp;#34; , &amp;#34;courier new&amp;#34; , monospace ; font-size: 14px ; line-height: 19px&quot;&gt;&lt;span style=&quot;color: #9cdcfe&quot;&gt;FeedbackGlyphFilter&lt;/span&gt;&lt;/div&gt;" style="text;html=1;align=center;verticalAlign=middle;resizable=0;points=[];autosize=1;strokeColor=none;fillColor=none;" parent="_3An6TJH8r7nM07LRVhA-1" vertex="1">
          <mxGeometry x="420" y="110" width="160" height="20" as="geometry" />
        </mxCell>
      </root>
    </mxGraphModel>
  </diagram>
</mxfile>
